<svg width="1200" height="520" viewBox="0 0 1200 520" fill="none" xmlns="http://www.w3.org/2000/svg" role="img" aria-labelledby="title desc">
  <title id="title">Warm library atmosphere</title>
  <desc id="desc">Illustration of a calm library room with shelves, books, tables, and soft morning light.</desc>
  <rect width="1200" height="520" fill="#F4EFE4"/>
  <rect x="0" y="0" width="1200" height="520" fill="url(#wallGlow)"/>
  <rect x="0" y="393" width="1200" height="127" fill="#D2B48C"/>
  <path d="M0 393H1200" stroke="#B98E5A" stroke-width="4"/>
  <rect x="78" y="66" width="274" height="324" rx="8" fill="#18394D"/>
  <rect x="90" y="82" width="250" height="42" fill="#D9B06E"/>
  <rect x="90" y="144" width="250" height="42" fill="#D9B06E"/>
  <rect x="90" y="206" width="250" height="42" fill="#D9B06E"/>
  <rect x="90" y="268" width="250" height="42" fill="#D9B06E"/>
  <rect x="90" y="330" width="250" height="42" fill="#D9B06E"/>
  <g opacity=".95">
    <rect x="106" y="91" width="18" height="33" fill="#B84A45"/>
    <rect x="130" y="88" width="14" height="36" fill="#F2E3B6"/>
    <rect x="150" y="94" width="22" height="30" fill="#3A7D73"/>
    <rect x="181" y="86" width="16" height="38" fill="#E3A638"/>
    <rect x="210" y="93" width="20" height="31" fill="#9C6FB6"/>
    <rect x="246" y="88" width="17" height="36" fill="#F2E3B6"/>
    <rect x="270" y="94" width="22" height="30" fill="#B84A45"/>
    <rect x="301" y="87" width="14" height="37" fill="#3A7D73"/>
    <rect x="112" y="154" width="16" height="32" fill="#3A7D73"/>
    <rect x="136" y="150" width="19" height="36" fill="#E3A638"/>
    <rect x="164" y="158" width="22" height="28" fill="#F2E3B6"/>
    <rect x="198" y="151" width="15" height="35" fill="#B84A45"/>
    <rect x="224" y="156" width="25" height="30" fill="#9C6FB6"/>
    <rect x="263" y="150" width="17" height="36" fill="#F2E3B6"/>
    <rect x="291" y="157" width="22" height="29" fill="#3A7D73"/>
    <rect x="104" y="216" width="23" height="32" fill="#F2E3B6"/>
    <rect x="139" y="211" width="16" height="37" fill="#B84A45"/>
    <rect x="168" y="219" width="24" height="29" fill="#3A7D73"/>
    <rect x="203" y="213" width="15" height="35" fill="#E3A638"/>
    <rect x="232" y="218" width="26" height="30" fill="#9C6FB6"/>
    <rect x="274" y="212" width="16" height="36" fill="#F2E3B6"/>
    <rect x="302" y="216" width="20" height="32" fill="#B84A45"/>
  </g>
  <rect x="846" y="66" width="274" height="324" rx="8" fill="#18394D"/>
  <rect x="858" y="82" width="250" height="42" fill="#D9B06E"/>
  <rect x="858" y="144" width="250" height="42" fill="#D9B06E"/>
  <rect x="858" y="206" width="250" height="42" fill="#D9B06E"/>
  <rect x="858" y="268" width="250" height="42" fill="#D9B06E"/>
  <rect x="858" y="330" width="250" height="42" fill="#D9B06E"/>
  <g opacity=".95">
    <rect x="876" y="88" width="18" height="36" fill="#9C6FB6"/>
    <rect x="904" y="94" width="23" height="30" fill="#F2E3B6"/>
    <rect x="938" y="87" width="15" height="37" fill="#3A7D73"/>
    <rect x="968" y="91" width="22" height="33" fill="#B84A45"/>
    <rect x="1004" y="86" width="16" height="38" fill="#E3A638"/>
    <rect x="1035" y="94" width="22" height="30" fill="#F2E3B6"/>
    <rect x="1070" y="88" width="17" height="36" fill="#3A7D73"/>
    <rect x="881" y="155" width="23" height="31" fill="#B84A45"/>
    <rect x="915" y="150" width="16" height="36" fill="#E3A638"/>
    <rect x="943" y="157" width="22" height="29" fill="#F2E3B6"/>
    <rect x="980" y="151" width="15" height="35" fill="#3A7D73"/>
    <rect x="1011" y="156" width="24" height="30" fill="#9C6FB6"/>
    <rect x="1050" y="150" width="17" height="36" fill="#F2E3B6"/>
    <rect x="1078" y="157" width="20" height="29" fill="#B84A45"/>
  </g>
  <rect x="422" y="78" width="356" height="232" rx="12" fill="#FFFFFF" stroke="#D7C6A3" stroke-width="4"/>
  <rect x="440" y="96" width="320" height="196" rx="8" fill="url(#windowLight)"/>
  <path d="M600 96V292M440 194H760" stroke="#D7C6A3" stroke-width="4"/>
  <path d="M442 292C510 230 574 221 628 258C684 297 724 280 760 248V292H442Z" fill="#B7D6C2" opacity=".75"/>
  <rect x="384" y="381" width="432" height="20" rx="10" fill="#8E5E3B"/>
  <rect x="430" y="401" width="22" height="86" fill="#70482F"/>
  <rect x="748" y="401" width="22" height="86" fill="#70482F"/>
  <rect x="474" y="339" width="252" height="42" rx="8" fill="#F7E7C6" stroke="#D8B26E" stroke-width="3"/>
  <path d="M500 333C540 333 569 344 600 365V430C569 409 540 398 500 398V333Z" fill="#FFF8E8" stroke="#D8B26E" stroke-width="4" stroke-linejoin="round"/>
  <path d="M700 333C660 333 631 344 600 365V430C631 409 660 398 700 398V333Z" fill="#FFF8E8" stroke="#D8B26E" stroke-width="4" stroke-linejoin="round"/>
  <path d="M600 365V432" stroke="#D8B26E" stroke-width="4" stroke-linecap="round"/>
  <circle cx="932" cy="412" r="34" fill="#F2D086" opacity=".9"/>
  <path d="M932 360V328M932 496V464M880 412H848M1016 412H984M895 375L872 352M992 472L969 449M969 375L992 352M872 472L895 449" stroke="#F2D086" stroke-width="8" stroke-linecap="round" opacity=".8"/>
  <defs>
    <linearGradient id="wallGlow" x1="600" y1="-22" x2="600" y2="449" gradientUnits="userSpaceOnUse">
      <stop stop-color="#FFF8E8"/>
      <stop offset=".72" stop-color="#F2E5CD"/>
      <stop offset="1" stop-color="#DEC49E"/>
    </linearGradient>
    <linearGradient id="windowLight" x1="459" y1="102" x2="748" y2="286" gradientUnits="userSpaceOnUse">
      <stop stop-color="#DDF3FF"/>
      <stop offset=".52" stop-color="#F9E9B8"/>
      <stop offset="1" stop-color="#BFD8C0"/>
    </linearGradient>
  </defs>
</svg>
